# xmcd CD database file
#
# Track frame offsets:
#	150
#	9314
#	33312
#	42913
#	65964
#	75844
#	92956
#	106800
#	130949
#	145916
#	170666
#	187944
#	218663
#	251419
#	261913
#	285914
#	301206
#	320775
#	335212
#
# Disc length: 4696 seconds
#
# Revision: 0
# Processed by: cddbd v1.5.2PL0 Copyright (c) Steve Scherf et al.
# Submitted via: CDex 1.70beta2
#
DISCID=0d125613
DTITLE=Andre Louis - A State Of Mind
DYEAR=2009
DGENRE=Jazz
TTITLE0=01 - a ticket to quietness
TTITLE1=02 - To be with you
TTITLE2=03 - Andre's instrumental loop04
TTITLE3=04 - Exploding fish
TTITLE4=05 - Leaving
TTITLE5=06brushes all over the floor
TTITLE6=07 - go empty it
TTITLE7=08 - from me to you
TTITLE8=09 - Just me (with rain)
TTITLE9=10 - sad piano groov
TTITLE10=11 - sadness
TTITLE11=12 - relish
TTITLE12=13 - there is a purpose
TTITLE13=14 - Tomorrow (remastered)
TTITLE14=15 - liquid audacity
TTITLE15=16 - the wrong side of the water
TTITLE16=17 - Color the Raynbo
TTITLE17=18 - eventually
TTITLE18=19 - The Outer Edge (Extended and remastered edition)
EXTD=YEAR: 2009
EXTT0=
EXTT1=
EXTT2=
EXTT3=
EXTT4=
EXTT5=
EXTT6=
EXTT7=
EXTT8=
EXTT9=
EXTT10=
EXTT11=
EXTT12=
EXTT13=
EXTT14=
EXTT15=
EXTT16=
EXTT17=
EXTT18=
PLAYORDER=
